HIERARCHY
ROOT Hips
{
	OFFSET 0.00000 0.00000 0.00000
	CHANNELS 6 Xposition Yposition Zposition Zrotation Yrotation Xrotation 
	JOINT LHipJoint
	{
		OFFSET 0 0 0
		CHANNELS 3 Zrotation Yrotation Xrotation
		JOINT LeftUpLeg
		{
			OFFSET 1.38280 -1.96574 0.54427
			CHANNELS 3 Zrotation Yrotation Xrotation
			JOINT LeftLeg
			{
				OFFSET 2.72096 -7.47578 0.00000
				CHANNELS 3 Zrotation Yrotation Xrotation
				JOINT LeftFoot
				{
					OFFSET 2.73041 -7.50176 0.00000
					CHANNELS 3 Zrotation Yrotation Xrotation
					JOINT LeftToeBase
					{
						OFFSET 0.16150 -0.44371 2.18031
						CHANNELS 3 Zrotation Yrotation Xrotation
						End Site
						{
							OFFSET 0.00000 -0.00000 1.12127
						}
					}
				}
			}
		}
	}
	JOINT RHipJoint
	{
		OFFSET 0 0 0
		CHANNELS 3 Zrotation Yrotation Xrotation
		JOINT RightUpLeg
		{
			OFFSET -1.57224 -1.96575 0.54427
			CHANNELS 3 Zrotation Yrotation Xrotation
			JOINT RightLeg
			{
				OFFSET -2.95935 -8.13076 0.00000
				CHANNELS 3 Zrotation Yrotation Xrotation
				JOINT RightFoot
				{
					OFFSET -2.52345 -6.93311 0.00000
					CHANNELS 3 Zrotation Yrotation Xrotation
					JOINT RightToeBase
					{
						OFFSET -0.04475 -0.10171 1.86688
						CHANNELS 3 Zrotation Yrotation Xrotation
						End Site
						{
							OFFSET -0.00000 -0.00000 0.95157
						}
					}
				}
			}
		}
	}
	JOINT LowerBack
	{
		OFFSET 0 0 0
		CHANNELS 3 Zrotation Yrotation Xrotation
		JOINT Spine
		{
			OFFSET 0.00669 2.07367 0.09104
			CHANNELS 3 Zrotation Yrotation Xrotation
			JOINT Spine1
			{
				OFFSET -0.00664 2.06198 -0.04732
				CHANNELS 3 Zrotation Yrotation Xrotation
				JOINT Neck
				{
					OFFSET 0 0 0
					CHANNELS 3 Zrotation Yrotation Xrotation
					JOINT Neck1
					{
						OFFSET -0.00021 1.49948 0.16345
						CHANNELS 3 Zrotation Yrotation Xrotation
						JOINT Head
						{
							OFFSET 0.06080 1.50567 -0.26702
							CHANNELS 3 Zrotation Yrotation Xrotation
							End Site
							{
								OFFSET 0.01726 1.56470 -0.11854
							}
						}
					}
				}
				JOINT LeftShoulder
				{
					OFFSET 0 0 0
					CHANNELS 3 Zrotation Yrotation Xrotation
					JOINT LeftArm
					{
						OFFSET 3.14993 0.82932 -0.22488
						CHANNELS 3 Zrotation Yrotation Xrotation
						JOINT LeftForeArm
						{
							OFFSET 5.68236 -0.00000 -0.00000
							CHANNELS 3 Zrotation Yrotation Xrotation
							JOINT LeftHand
							{
								OFFSET 3.17112 -0.00000 0.00000
								CHANNELS 3 Zrotation Yrotation Xrotation
								JOINT LeftFingerBase
								{
									OFFSET 0 0 0
									CHANNELS 3 Zrotation Yrotation Xrotation
									JOINT LeftHandIndex1
									{
										OFFSET 0.63269 -0.00000 0.00000
										CHANNELS 3 Zrotation Yrotation Xrotation
										End Site
										{
											OFFSET 0.51009 -0.00000 0.00000
										}
									}
								}
								JOINT LThumb
								{
									OFFSET 0 0 0
									CHANNELS 3 Zrotation Yrotation Xrotation
									End Site
									{
										OFFSET 0.51788 -0.00000 0.51788
									}
								}
							}
						}
					}
				}
				JOINT RightShoulder
				{
					OFFSET 0 0 0
					CHANNELS 3 Zrotation Yrotation Xrotation
					JOINT RightArm
					{
						OFFSET -3.10571 0.91279 -0.33334
						CHANNELS 3 Zrotation Yrotation Xrotation
						JOINT RightForeArm
						{
							OFFSET -5.87120 -0.00000 -0.00000
							CHANNELS 3 Zrotation Yrotation Xrotation
							JOINT RightHand
							{
								OFFSET -3.37589 -0.00000 0.00000
								CHANNELS 3 Zrotation Yrotation Xrotation
								JOINT RightFingerBase
								{
									OFFSET 0 0 0
									CHANNELS 3 Zrotation Yrotation Xrotation
									JOINT RightHandIndex1
									{
										OFFSET -0.60326 -0.00000 0.00000
										CHANNELS 3 Zrotation Yrotation Xrotation
										End Site
										{
											OFFSET -0.48636 -0.00000 0.00000
										}
									}
								}
								JOINT RThumb
								{
									OFFSET 0 0 0
									CHANNELS 3 Zrotation Yrotation Xrotation
									End Site
									{
										OFFSET -0.49379 -0.00000 0.49379
									}
								}
							}
						}
					}
				}
			}
		}
	}
}
MOTION
Frames: 10
Frame Time: 0.0121212
0.00 0.00 0.00 0 0 0 0 0 0 -21 0 0 0 0 0 0 0 0 0 0 0 0 0 0 21 0 0 0 0 0 0 0 0 0 0 0 0 0 0 0 0 0 0 0 0 0 0 -16 0 0 21 0 0 11 0 0 0 -8 0 0 0 0 0 0 0 0 0 0 0 0 0 0 0 0 0 0 0 0 8 0 0 0 0 0 0 0 0 0 0 0 0 0 0 0 0 0
0.00 0.00 0.00 162.0350 -84.3985 -152.6450 0.0000 0.0000 0.0000 -23.8474 -7.7887 -18.9642 3.6387 11.6634 34.5515 2.1390 -3.2525 -26.8517 0.8291 -5.8091 -16.2317 0.0000 0.0000 0.0000 17.9056 10.1307 -16.6022 -4.8674 -13.2329 40.2467 0.9417 -17.4280 -1.8533 -11.8835 18.3410 -65.6192 -4.5438 -0.4160 -11.0202 -0.5144 0.0488 0.3402 2.0273 -0.1299 6.5526 -2.2136 0.0059 -20.5642 1.7538 0.2655 17.5733 0.9964 0.1561 8.8835 -0.0000 -0.0000 0.0000 -87.6929 -3.7898 48.7323 23.2290 -34.3383 -7.2671 -0.0000 0.0000 -16.2140 15.6145 30.7167 8.1244 -7.1250 0.0000 -0.0000 -18.5548 60.6887 -7.2402 -0.0000 -0.0000 0.0000 85.9320 -0.8916 13.0872 -17.9519 28.0955 -4.5265 0.0000 0.0000 15.9717 -21.6944 29.0306 -10.9271 7.1250 -0.0000 -0.0000 5.2560 0.7559 5.3473
0.00 0.00 0.00 168.9190 -82.0727 -160.2130 0.0000 0.0000 0.0000 -24.6614 -5.9561 -18.5206 3.8133 11.9077 35.4063 2.3374 -3.0622 -28.1599 0.9031 -6.0563 -16.9478 0.0000 0.0000 0.0000 16.3042 12.6563 -23.5354 -8.3349 -16.3602 53.7603 0.5519 -13.2072 -2.5657 -11.2911 18.0746 -63.7234 -4.9768 -0.5337 -9.1984 -0.3150 -0.1409 0.9899 2.4507 -0.2392 6.2258 -1.3846 1.2064 -21.0583 0.4191 1.9666 17.5031 0.6354 0.8606 8.9323 -0.0000 -0.0000 0.0000 -86.6099 -4.8485 48.6556 24.3384 -35.5200 -7.9023 -0.0000 0.0000 -18.0529 15.5719 30.9343 8.1524 -7.1250 0.0000 -0.0000 -18.7692 60.8838 -7.4146 -0.0000 -0.0000 0.0000 85.3000 0.1215 17.8456 -21.7678 32.7137 -6.4599 0.0000 0.0000 11.9124 -22.8865 29.3280 -11.6823 7.1250 -0.0000 -0.0000 4.6022 1.3062 4.7210
0.00 0.00 0.00 90.4300 -88.2619 -78.9829 0.0000 0.0000 0.0000 -22.2558 1.7729 1.6248 2.3198 9.5027 27.3808 0.3425 -0.0343 -11.0437 1.0621 -6.5523 -18.3957 0.0000 0.0000 0.0000 10.2207 20.9137 -34.8158 -3.0038 -10.7012 31.2786 -0.1999 2.8771 -7.9415 -13.4716 18.9459 -70.5839 0.4324 -1.1212 -6.6597 2.1784 -1.6780 2.0271 1.8307 -0.8632 5.9055 -1.5928 1.6797 -21.0537 -1.6369 3.0661 14.6279 0.0991 1.1814 7.9786 -0.0000 0.0000 0.0000 -88.6075 7.2792 26.9852 16.0712 -25.6171 -3.6767 -0.0000 0.0000 -15.5760 17.6563 33.6503 10.0028 -7.1250 0.0000 -0.0000 -18.7818 63.9684 -8.7858 -0.0000 0.0000 0.0000 85.4541 -9.1413 -8.6514 -13.3425 21.7869 -2.5790 0.0000 0.0000 22.6078 -18.5496 27.1789 -8.7141 7.1250 -0.0000 -0.0000 6.8992 -1.7196 6.7385
0.00 0.00 0.00 20.1760 -85.4000 -7.9278 0.0000 0.0000 0.0000 -19.2020 0.6933 -6.3453 5.1490 13.5497 41.4626 -0.1257 6.7126 -4.9983 0.8515 -5.8852 -16.4516 0.0000 0.0000 0.0000 11.9986 18.6608 -32.9991 -3.2958 -11.1591 32.8183 -0.0870 -1.1254 -6.1060 -13.5316 18.9658 -70.7688 1.3525 -1.4850 -6.6646 2.7216 -2.2770 1.7382 1.8125 -1.1406 5.6114 -1.8047 1.2703 -20.8983 -1.6513 2.5752 14.8293 0.0657 0.9321 8.0181 -0.0000 0.0000 0.0000 -89.0533 6.5747 30.9315 17.5763 -27.6112 -4.3511 -0.0000 0.0000 -15.0139 17.5815 34.1633 10.0894 -7.1250 0.0000 -0.0000 -19.3544 64.4273 -9.2701 -0.0000 0.0000 0.0000 82.9762 -6.7200 -6.3515 -13.5665 22.1115 -2.6627 0.0000 0.0000 22.5020 -19.9359 27.6406 -9.5515 7.1250 -0.0000 -0.0000 6.1230 -1.0046 6.0496
0.00 0.00 0.00 8.2590 -79.3799 4.5789 0.0000 0.0000 0.0000 -16.8822 -4.2878 -18.2626 9.3703 17.0402 57.3623 -0.2445 9.5323 -7.5902 0.8783 -5.9746 -16.7109 0.0000 0.0000 0.0000 14.0117 15.7495 -30.3238 -3.3850 -11.2936 33.2767 0.0819 -5.0988 -2.4630 -13.5399 18.9685 -70.7943 2.2063 -1.5790 -6.6903 3.1736 -2.5193 1.8790 1.7756 -1.2428 5.7668 -1.7393 0.5933 -21.3092 -1.4423 1.6174 15.3384 0.0055 0.4959 8.2582 0.0000 0.0000 0.0000 -89.6123 1.6222 34.2995 17.7133 -27.7885 -4.4148 -0.0000 0.0000 -13.6288 23.7226 34.6887 14.0413 -7.1250 0.0000 -0.0000 -12.5647 66.6678 -6.6048 0.0000 0.0000 0.0000 78.5462 -1.9535 0.0143 -13.9271 22.6304 -2.8000 0.0000 0.0000 22.1444 -24.0162 27.4214 -11.5960 7.1250 -0.0000 -0.0000 3.6763 -0.4370 3.6557
0.00 0.00 0.00 8.2112 -76.9647 4.3294 0.0000 0.0000 0.0000 -18.3446 -5.6119 -28.4205 9.5562 17.1526 57.9944 0.9907 5.5795 -21.6103 0.4888 -4.4827 -12.4388 0.0000 0.0000 0.0000 15.8777 14.2869 -26.9936 -3.5875 -11.5903 34.2975 0.2646 -9.6713 0.0214 -13.5001 18.9553 -70.6718 2.4326 -0.5092 -6.4564 2.8919 -1.0916 2.1436 1.5219 -0.5220 5.8749 -1.3275 0.7180 -21.4469 -2.1110 1.8286 16.6733 -0.2588 0.5231 8.7493 0.0000 0.0000 0.0000 -90.6351 -2.0889 32.5671 18.0082 -28.1676 -4.5531 -0.0000 0.0000 -14.8699 26.8640 34.6382 16.0618 -7.1250 0.0000 -0.0000 -8.4990 67.5542 -4.6235 0.0000 0.0000 0.0000 73.1151 6.0933 4.3632 -13.1751 21.5432 -2.5172 0.0000 0.0000 27.7743 -28.4287 23.8738 -12.3579 7.1250 -0.0000 -0.0000 0.5190 -3.2654 0.4886
0.00 0.00 0.00 -0.9734 -72.6481 11.2391 0.0000 0.0000 0.0000 -23.6036 -10.5755 -35.6799 0.7902 5.6746 15.8432 0.5626 3.5712 -15.9208 0.5941 -4.9344 -13.7216 0.0000 0.0000 0.0000 24.0515 4.7570 -12.5705 -2.2549 -9.3780 26.9851 0.6228 -14.7674 0.1171 -13.3987 18.9214 -70.3593 2.6996 0.9294 -7.5222 2.4184 0.7829 2.4085 1.1195 0.4302 6.7562 0.1849 1.6689 -19.8831 -2.7095 2.8320 19.5530 -0.5836 0.9870 9.5072 -0.0000 0.0000 0.0000 -87.8009 -1.3205 39.6306 15.1679 -24.3795 -3.2949 -0.0000 0.0000 -5.0778 21.4246 33.5857 12.2469 -7.1250 0.0000 -0.0000 -14.3600 64.9375 -6.9922 -0.0000 0.0000 0.0000 71.6994 18.2592 18.5150 -31.2544 41.9446 -12.2395 0.0000 0.0000 8.8314 -31.0009 22.6271 -13.0169 7.1250 -0.0000 -0.0000 -1.2465 -4.0526 -1.1556
0.00 0.00 0.00 -6.9552 -73.0391 16.4107 0.0000 0.0000 0.0000 -25.6951 -3.5954 -35.2029 2.4985 9.8352 28.4448 0.4726 10.6567 -20.8986 0.0506 -1.4521 -3.9936 0.0000 0.0000 0.0000 23.6313 -3.7465 -0.8142 -3.0225 -10.7313 31.3790 -0.5503 3.0318 -13.3054 -13.1760 18.8448 -69.6714 -1.7081 2.0013 -12.8613 -0.1785 2.9282 0.6143 1.3384 1.3509 7.8027 -0.0693 3.7944 -19.6193 -3.3161 6.0000 19.6720 -0.3131 2.3610 9.5676 -0.0000 -0.0000 0.0000 -86.4389 4.5305 33.9858 12.5206 -20.5808 -2.2820 -0.0000 0.0000 -5.0084 8.2828 39.6343 5.3054 -7.1250 0.0000 -0.0000 -36.2271 66.4882 -19.8524 -0.0000 -0.0000 0.0000 92.8067 -7.0525 18.8947 -28.8197 39.8600 -10.6450 0.0000 0.0000 18.2492 -22.5270 25.0094 -9.9457 7.1250 -0.0000 -0.0000 4.2701 -3.2485 4.0327
0.00 0.00 0.00 -2.8916 -73.7495 12.4552 0.0000 0.0000 0.0000 -27.6218 -2.6161 -32.5871 2.6199 10.0527 29.1476 0.8366 8.9227 -22.7152 0.0393 -1.2802 -3.5202 0.0000 0.0000 0.0000 19.1312 -2.1999 -7.2382 -6.1037 -14.5281 45.3964 -0.9242 8.6403 -17.2996 -13.2578 18.8733 -69.9243 -3.0497 1.6585 -12.6138 -0.6478 2.6957 0.4533 1.5376 1.2001 7.4596 0.6562 5.1053 -19.1466 -4.3237 7.7948 18.9457 -0.5407 3.1566 9.3370 -0.0000 -0.0000 0.0000 -86.3741 4.2551 34.5204 14.5814 -23.5597 -3.0567 -0.0000 0.0000 -7.8402 13.4437 37.9762 8.3676 -7.1250 0.0000 -0.0000 -28.3741 66.6565 -15.3229 -0.0000 -0.0000 0.0000 91.2265 -7.6393 8.9512 -17.9090 28.0405 -4.5064 0.0000 0.0000 21.7819 -18.8121 23.9005 -7.8583 7.1250 -0.0000 -0.0000 6.4418 -5.0276 5.8906
